<mxfile host="Electron" agent="Mozilla/5.0 (Windows NT 10.0; Win64; x64) AppleWebKit/537.36 (KHTML, like Gecko) draw.io/24.7.17 Chrome/128.0.6613.36 Electron/32.0.1 Safari/537.36" version="24.7.17">
  <diagram name="Page-1" id="IG8ErTbp5B1btTcrmv5j">
    <mxGraphModel dx="830" dy="486" grid="1" gridSize="10" guides="1" tooltips="1" connect="1" arrows="1" fold="1" page="1" pageScale="1" pageWidth="850" pageHeight="1100" math="0" shadow="0">
      <root>
        <mxCell id="0" />
        <mxCell id="1" parent="0" />
        <mxCell id="_GmQN_NSeH1qsIXKeuJd-22" value="" style="rounded=0;whiteSpace=wrap;html=1;fillColor=none;dashed=1;" parent="1" vertex="1">
          <mxGeometry width="400" height="240" as="geometry" />
        </mxCell>
        <mxCell id="_GmQN_NSeH1qsIXKeuJd-23" value="Parent client area" style="text;html=1;align=left;verticalAlign=middle;whiteSpace=wrap;rounded=0;" parent="1" vertex="1">
          <mxGeometry x="30" width="340" height="30" as="geometry" />
        </mxCell>
        <mxCell id="_GmQN_NSeH1qsIXKeuJd-24" value="" style="rounded=0;whiteSpace=wrap;html=1;fillColor=none;dashed=1;" parent="1" vertex="1">
          <mxGeometry x="30" y="30" width="340" height="180" as="geometry" />
        </mxCell>
        <mxCell id="_GmQN_NSeH1qsIXKeuJd-25" value="Component" style="text;html=1;align=left;verticalAlign=middle;whiteSpace=wrap;rounded=0;" parent="1" vertex="1">
          <mxGeometry x="60" y="30" width="280" height="30" as="geometry" />
        </mxCell>
        <mxCell id="_GmQN_NSeH1qsIXKeuJd-26" value="" style="rounded=0;whiteSpace=wrap;html=1;fillColor=none;dashed=1;" parent="1" vertex="1">
          <mxGeometry x="60" y="60" width="280" height="120" as="geometry" />
        </mxCell>
        <mxCell id="_GmQN_NSeH1qsIXKeuJd-27" value="Child client area" style="text;html=1;align=left;verticalAlign=middle;whiteSpace=wrap;rounded=0;" parent="1" vertex="1">
          <mxGeometry x="90" y="60" width="220" height="30" as="geometry" />
        </mxCell>
        <mxCell id="_GmQN_NSeH1qsIXKeuJd-28" value="" style="endArrow=classic;startArrow=classic;html=1;rounded=0;" parent="1" edge="1">
          <mxGeometry width="50" height="50" relative="1" as="geometry">
            <mxPoint x="59.52000000000001" y="240" as="sourcePoint" />
            <mxPoint x="59.52000000000001" y="210" as="targetPoint" />
          </mxGeometry>
        </mxCell>
        <mxCell id="_GmQN_NSeH1qsIXKeuJd-29" value="" style="endArrow=classic;startArrow=classic;html=1;rounded=0;" parent="1" edge="1">
          <mxGeometry width="50" height="50" relative="1" as="geometry">
            <mxPoint x="89.52000000000001" y="210" as="sourcePoint" />
            <mxPoint x="89.52000000000001" y="180" as="targetPoint" />
          </mxGeometry>
        </mxCell>
        <mxCell id="_GmQN_NSeH1qsIXKeuJd-30" value="Margin" style="text;html=1;align=left;verticalAlign=middle;whiteSpace=wrap;rounded=0;" parent="1" vertex="1">
          <mxGeometry x="70" y="210" width="260" height="30" as="geometry" />
        </mxCell>
        <mxCell id="_GmQN_NSeH1qsIXKeuJd-31" value="Padding" style="text;html=1;align=left;verticalAlign=middle;whiteSpace=wrap;rounded=0;" parent="1" vertex="1">
          <mxGeometry x="100" y="180" width="200" height="30" as="geometry" />
        </mxCell>
      </root>
    </mxGraphModel>
  </diagram>
</mxfile>
